<svg width="108" height="28" viewBox="0 0 108 28" fill="none" xmlns="http://www.w3.org/2000/svg">
<g clip-path="url(#clip0_8_51)">
<rect width="28" height="28" rx="8" fill="#6366F1"/>
<path d="M51.4304 6.45455V21H48.7741L42.446 11.8452H42.3395V21H39.2642V6.45455H41.9631L48.2415 15.6023H48.3693V6.45455H51.4304ZM58.886 21.2131C57.7638 21.2131 56.7979 20.9858 55.9883 20.5312C55.1834 20.072 54.5631 19.4233 54.1275 18.5852C53.6919 17.7424 53.4741 16.7457 53.4741 15.5952C53.4741 14.473 53.6919 13.4882 54.1275 12.6406C54.5631 11.7931 55.1763 11.1326 55.967 10.6591C56.7624 10.1856 57.6952 9.94886 58.7653 9.94886C59.485 9.94886 60.1549 10.0649 60.7752 10.2969C61.4002 10.5241 61.9447 10.8674 62.4087 11.3267C62.8775 11.786 63.2421 12.3636 63.5025 13.0597C63.7629 13.7509 63.8931 14.5606 63.8931 15.4886V16.3196H54.6815V14.4446H61.0451C61.0451 14.009 60.9504 13.6231 60.761 13.2869C60.5716 12.9508 60.3088 12.688 59.9727 12.4986C59.6412 12.3045 59.2553 12.2074 58.815 12.2074C58.3557 12.2074 57.9485 12.3139 57.5934 12.527C57.243 12.7353 56.9684 13.017 56.7695 13.3722C56.5707 13.7225 56.4689 14.1132 56.4641 14.544V16.3267C56.4641 16.8665 56.5636 17.3329 56.7624 17.7259C56.966 18.1188 57.2525 18.4219 57.6218 18.6349C57.9911 18.848 58.4291 18.9545 58.9357 18.9545C59.2719 18.9545 59.5797 18.9072 59.859 18.8125C60.1384 18.7178 60.3775 18.5758 60.5763 18.3864C60.7752 18.197 60.9267 17.965 61.0309 17.6903L63.8292 17.875C63.6871 18.5473 63.396 19.1345 62.9556 19.6364C62.52 20.1335 61.9566 20.5218 61.2653 20.8011C60.5787 21.0758 59.7856 21.2131 58.886 21.2131ZM68.2006 10.0909L70.2035 13.9048L72.256 10.0909H75.3597L72.1992 15.5455L75.445 21H72.3555L70.2035 17.2287L68.087 21H64.962L68.2006 15.5455L65.0756 10.0909H68.2006ZM81.695 21.2131C80.5917 21.2131 79.6377 20.9787 78.8327 20.5099C78.0326 20.0365 77.4147 19.3783 76.979 18.5355C76.5434 17.688 76.3256 16.7055 76.3256 15.5881C76.3256 14.4612 76.5434 13.4763 76.979 12.6335C77.4147 11.786 78.0326 11.1278 78.8327 10.6591C79.6377 10.1856 80.5917 9.94886 81.695 9.94886C82.7982 9.94886 83.7499 10.1856 84.5501 10.6591C85.355 11.1278 85.9753 11.786 86.4109 12.6335C86.8465 13.4763 87.0643 14.4612 87.0643 15.5881C87.0643 16.7055 86.8465 17.688 86.4109 18.5355C85.9753 19.3783 85.355 20.0365 84.5501 20.5099C83.7499 20.9787 82.7982 21.2131 81.695 21.2131ZM81.7092 18.8693C82.2111 18.8693 82.6301 18.7273 82.9663 18.4432C83.3024 18.1544 83.5558 17.7614 83.7262 17.2642C83.9014 16.767 83.989 16.2012 83.989 15.5668C83.989 14.9323 83.9014 14.3665 83.7262 13.8693C83.5558 13.3722 83.3024 12.9792 82.9663 12.6903C82.6301 12.4015 82.2111 12.2571 81.7092 12.2571C81.2025 12.2571 80.7764 12.4015 80.4308 12.6903C80.0898 12.9792 79.8318 13.3722 79.6566 13.8693C79.4862 14.3665 79.4009 14.9323 79.4009 15.5668C79.4009 16.2012 79.4862 16.767 79.6566 17.2642C79.8318 17.7614 80.0898 18.1544 80.4308 18.4432C80.7764 18.7273 81.2025 18.8693 81.7092 18.8693ZM89.0316 21V10.0909H91.9648V11.9943H92.0785C92.2773 11.3172 92.6112 10.8059 93.0799 10.4602C93.5487 10.1098 94.0884 9.93466 94.6992 9.93466C94.8507 9.93466 95.0141 9.94413 95.1893 9.96307C95.3645 9.98201 95.5183 10.008 95.6509 10.0412V12.7259C95.5089 12.6832 95.3124 12.6454 95.0614 12.6122C94.8105 12.5791 94.5808 12.5625 94.3725 12.5625C93.9274 12.5625 93.5297 12.6596 93.1793 12.8537C92.8337 13.0431 92.5591 13.3082 92.3555 13.6491C92.1566 13.9901 92.0572 14.383 92.0572 14.8281V21H89.0316ZM100.013 21.206C99.3175 21.206 98.6972 21.0852 98.1527 20.8438C97.6082 20.5975 97.1773 20.2353 96.8601 19.7571C96.5476 19.2741 96.3913 18.6728 96.3913 17.9531C96.3913 17.3471 96.5026 16.8381 96.7251 16.4261C96.9477 16.0142 97.2507 15.6828 97.6342 15.4318C98.0178 15.1809 98.4534 14.9915 98.9411 14.8636C99.4335 14.7358 99.9496 14.6458 100.489 14.5938C101.124 14.5275 101.635 14.4659 102.023 14.4091C102.412 14.3475 102.693 14.2576 102.869 14.1392C103.044 14.0208 103.131 13.8456 103.131 13.6136V13.571C103.131 13.1212 102.989 12.7732 102.705 12.527C102.426 12.2808 102.028 12.1577 101.512 12.1577C100.968 12.1577 100.534 12.2784 100.212 12.5199C99.8904 12.7566 99.6773 13.0549 99.5732 13.4148L96.7749 13.1875C96.9169 12.5246 97.1963 11.9517 97.6129 11.4688C98.0296 10.9811 98.567 10.607 99.2251 10.3466C99.888 10.0814 100.655 9.94886 101.526 9.94886C102.132 9.94886 102.712 10.0199 103.266 10.1619C103.825 10.304 104.32 10.5241 104.751 10.8224C105.186 11.1207 105.53 11.5043 105.781 11.973C106.031 12.437 106.157 12.9934 106.157 13.642V21H103.288V19.4872H103.202C103.027 19.8281 102.793 20.1288 102.499 20.3892C102.206 20.6449 101.853 20.8461 101.441 20.9929C101.029 21.1349 100.553 21.206 100.013 21.206ZM100.88 19.1179C101.325 19.1179 101.718 19.0303 102.059 18.8551C102.4 18.6752 102.667 18.4337 102.862 18.1307C103.056 17.8277 103.153 17.4844 103.153 17.1009V15.9432C103.058 16.0047 102.928 16.0616 102.762 16.1136C102.601 16.161 102.419 16.206 102.215 16.2486C102.012 16.2865 101.808 16.322 101.604 16.3551C101.401 16.3835 101.216 16.4096 101.05 16.4332C100.695 16.4853 100.385 16.5682 100.12 16.6818C99.8549 16.7955 99.6489 16.9493 99.5021 17.1435C99.3554 17.3329 99.282 17.5696 99.282 17.8537C99.282 18.2656 99.4311 18.5805 99.7294 18.7983C100.032 19.0114 100.416 19.1179 100.88 19.1179Z" fill="white"/>
</g>
<defs>
<clipPath id="clip0_8_51">
<rect width="108" height="28" fill="white"/>
</clipPath>
</defs>
</svg>
