<svg width="106" height="28" viewBox="0 0 106 28" fill="none" xmlns="http://www.w3.org/2000/svg">
<g clip-path="url(#clip0_3_4)">
<rect width="28" height="28" rx="8" fill="#6366F1"/>
<path d="M49.4304 6.45455V21H46.7741L40.446 11.8452H40.3395V21H37.2642V6.45455H39.9631L46.2415 15.6023H46.3693V6.45455H49.4304ZM56.886 21.2131C55.7638 21.2131 54.7979 20.9858 53.9883 20.5312C53.1834 20.072 52.5631 19.4233 52.1275 18.5852C51.6919 17.7424 51.4741 16.7457 51.4741 15.5952C51.4741 14.473 51.6919 13.4882 52.1275 12.6406C52.5631 11.7931 53.1763 11.1326 53.967 10.6591C54.7624 10.1856 55.6952 9.94886 56.7653 9.94886C57.485 9.94886 58.1549 10.0649 58.7752 10.2969C59.4002 10.5241 59.9447 10.8674 60.4087 11.3267C60.8775 11.786 61.2421 12.3636 61.5025 13.0597C61.7629 13.7509 61.8931 14.5606 61.8931 15.4886V16.3196H52.6815V14.4446H59.0451C59.0451 14.009 58.9504 13.6231 58.761 13.2869C58.5716 12.9508 58.3088 12.688 57.9727 12.4986C57.6412 12.3045 57.2553 12.2074 56.815 12.2074C56.3557 12.2074 55.9485 12.3139 55.5934 12.527C55.243 12.7353 54.9684 13.017 54.7695 13.3722C54.5707 13.7225 54.4689 14.1132 54.4641 14.544V16.3267C54.4641 16.8665 54.5636 17.3329 54.7624 17.7259C54.966 18.1188 55.2525 18.4219 55.6218 18.6349C55.9911 18.848 56.4291 18.9545 56.9357 18.9545C57.2719 18.9545 57.5797 18.9072 57.859 18.8125C58.1384 18.7178 58.3775 18.5758 58.5763 18.3864C58.7752 18.197 58.9267 17.965 59.0309 17.6903L61.8292 17.875C61.6871 18.5473 61.396 19.1345 60.9556 19.6364C60.52 20.1335 59.9566 20.5218 59.2653 20.8011C58.5787 21.0758 57.7856 21.2131 56.886 21.2131ZM66.2006 10.0909L68.2035 13.9048L70.256 10.0909H73.3597L70.1992 15.5455L73.445 21H70.3555L68.2035 17.2287L66.087 21H62.962L66.2006 15.5455L63.0756 10.0909H66.2006ZM79.695 21.2131C78.5917 21.2131 77.6377 20.9787 76.8327 20.5099C76.0326 20.0365 75.4147 19.3783 74.979 18.5355C74.5434 17.688 74.3256 16.7055 74.3256 15.5881C74.3256 14.4612 74.5434 13.4763 74.979 12.6335C75.4147 11.786 76.0326 11.1278 76.8327 10.6591C77.6377 10.1856 78.5917 9.94886 79.695 9.94886C80.7982 9.94886 81.7499 10.1856 82.5501 10.6591C83.355 11.1278 83.9753 11.786 84.4109 12.6335C84.8465 13.4763 85.0643 14.4612 85.0643 15.5881C85.0643 16.7055 84.8465 17.688 84.4109 18.5355C83.9753 19.3783 83.355 20.0365 82.5501 20.5099C81.7499 20.9787 80.7982 21.2131 79.695 21.2131ZM79.7092 18.8693C80.2111 18.8693 80.6301 18.7273 80.9663 18.4432C81.3024 18.1544 81.5558 17.7614 81.7262 17.2642C81.9014 16.767 81.989 16.2012 81.989 15.5668C81.989 14.9323 81.9014 14.3665 81.7262 13.8693C81.5558 13.3722 81.3024 12.9792 80.9663 12.6903C80.6301 12.4015 80.2111 12.2571 79.7092 12.2571C79.2025 12.2571 78.7764 12.4015 78.4308 12.6903C78.0898 12.9792 77.8318 13.3722 77.6566 13.8693C77.4862 14.3665 77.4009 14.9323 77.4009 15.5668C77.4009 16.2012 77.4862 16.767 77.6566 17.2642C77.8318 17.7614 78.0898 18.1544 78.4308 18.4432C78.7764 18.7273 79.2025 18.8693 79.7092 18.8693ZM87.0316 21V10.0909H89.9648V11.9943H90.0785C90.2773 11.3172 90.6112 10.8059 91.0799 10.4602C91.5487 10.1098 92.0884 9.93466 92.6992 9.93466C92.8507 9.93466 93.0141 9.94413 93.1893 9.96307C93.3645 9.98201 93.5183 10.008 93.6509 10.0412V12.7259C93.5089 12.6832 93.3124 12.6454 93.0614 12.6122C92.8105 12.5791 92.5808 12.5625 92.3725 12.5625C91.9274 12.5625 91.5297 12.6596 91.1793 12.8537C90.8337 13.0431 90.5591 13.3082 90.3555 13.6491C90.1566 13.9901 90.0572 14.383 90.0572 14.8281V21H87.0316ZM98.0135 21.206C97.3175 21.206 96.6972 21.0852 96.1527 20.8438C95.6082 20.5975 95.1773 20.2353 94.8601 19.7571C94.5476 19.2741 94.3913 18.6728 94.3913 17.9531C94.3913 17.3471 94.5026 16.8381 94.7251 16.4261C94.9477 16.0142 95.2507 15.6828 95.6342 15.4318C96.0178 15.1809 96.4534 14.9915 96.9411 14.8636C97.4335 14.7358 97.9496 14.6458 98.4893 14.5938C99.1238 14.5275 99.6352 14.4659 100.023 14.4091C100.412 14.3475 100.693 14.2576 100.869 14.1392C101.044 14.0208 101.131 13.8456 101.131 13.6136V13.571C101.131 13.1212 100.989 12.7732 100.705 12.527C100.426 12.2808 100.028 12.1577 99.5121 12.1577C98.9676 12.1577 98.5343 12.2784 98.2124 12.5199C97.8904 12.7566 97.6773 13.0549 97.5732 13.4148L94.7749 13.1875C94.9169 12.5246 95.1963 11.9517 95.6129 11.4688C96.0296 10.9811 96.567 10.607 97.2251 10.3466C97.888 10.0814 98.6551 9.94886 99.5263 9.94886C100.132 9.94886 100.712 10.0199 101.266 10.1619C101.825 10.304 102.32 10.5241 102.751 10.8224C103.186 11.1207 103.53 11.5043 103.781 11.973C104.031 12.437 104.157 12.9934 104.157 13.642V21H101.288V19.4872H101.202C101.027 19.8281 100.793 20.1288 100.499 20.3892C100.206 20.6449 99.853 20.8461 99.4411 20.9929C99.0291 21.1349 98.5533 21.206 98.0135 21.206ZM98.88 19.1179C99.325 19.1179 99.718 19.0303 100.059 18.8551C100.4 18.6752 100.667 18.4337 100.862 18.1307C101.056 17.8277 101.153 17.4844 101.153 17.1009V15.9432C101.058 16.0047 100.928 16.0616 100.762 16.1136C100.601 16.161 100.419 16.206 100.215 16.2486C100.012 16.2865 99.808 16.322 99.6044 16.3551C99.4008 16.3835 99.2161 16.4096 99.0504 16.4332C98.6953 16.4853 98.3852 16.5682 98.12 16.6818C97.8549 16.7955 97.6489 16.9493 97.5021 17.1435C97.3554 17.3329 97.282 17.5696 97.282 17.8537C97.282 18.2656 97.4311 18.5805 97.7294 18.7983C98.0324 19.0114 98.416 19.1179 98.88 19.1179Z" fill="#0F172A"/>
</g>
<defs>
<clipPath id="clip0_3_4">
<rect width="106" height="28" fill="white"/>
</clipPath>
</defs>
</svg>
